<svg xmlns="http://www.w3.org/2000/svg" viewBox="0 0 25.43 22"><defs><style>.cls-1{fill:var(--icon-color-1);}.cls-2{fill:var(--icon-color-2);}</style></defs><g id="Calque_2" data-name="Calque 2"><g id="Calque_1-2" data-name="Calque 1"><path class="cls-1" d="M17.86,1.75a5.81,5.81,0,0,1,5.82,5.81c0,5.65-11.11,12.69-11.11,12.69S1.75,13.21,1.75,7.56a5.81,5.81,0,0,1,11-2.7,5.83,5.83,0,0,1,5.15-3.11m0-1.75a7.57,7.57,0,0,0-5.15,2A7.56,7.56,0,0,0,0,7.56C0,14,10.43,20.94,11.62,21.72a1.74,1.74,0,0,0,1.88,0C14.72,21,25.43,14,25.43,7.56A7.57,7.57,0,0,0,17.86,0Z"/><path class="cls-2" d="M14.1,15.75h0a.43.43,0,0,1-.41-.36L12.56,8.8l-1,3.31a.45.45,0,0,1-.42.31H8.76A.44.44,0,0,1,8.32,12a.44.44,0,0,1,.44-.43h2.08l1.42-4.82a.42.42,0,0,1,.44-.31.44.44,0,0,1,.41.36l1.08,6.48.38-1.39a.43.43,0,0,1,.42-.32h1.85a.43.43,0,0,1,.44.43.44.44,0,0,1-.44.44H15.32l-.8,3A.44.44,0,0,1,14.1,15.75Z"/></g></g></svg>