<svg xmlns="http://www.w3.org/2000/svg" viewBox="0 0 22.93 23"><defs><style>.cls-1{fill:var(--icon-color-1);}.cls-2{fill:var(--icon-color-2);}</style></defs><g id="Calque_2" data-name="Calque 2"><g id="Objets"><path id="Tracé_50" data-name="Tracé 50" class="cls-1" d="M3.35,19.63a11.48,11.48,0,1,0,0-16.26h0A11.53,11.53,0,0,0,3.35,19.63Z"/><path id="Tracé_51" data-name="Tracé 51" class="cls-2" d="M12.81,12.85h4a1.08,1.08,0,0,0,1.08-1.08v-.54a1.08,1.08,0,0,0-1.08-1.08h-4V6.09A1.07,1.07,0,0,0,11.74,5H11.2a1.08,1.08,0,0,0-1.08,1.08v4.06h-4A1.08,1.08,0,0,0,5,11.23v.54a1.08,1.08,0,0,0,1.08,1.08h4v4.06A1.08,1.08,0,0,0,11.2,18h.54a1.07,1.07,0,0,0,1.07-1.08Z"/><path id="Tracé_51-2" data-name="Tracé 51" class="cls-2" d="M12.81,12.85h4a1.08,1.08,0,0,0,1.08-1.08v-.54a1.08,1.08,0,0,0-1.08-1.08h-4V6.09A1.07,1.07,0,0,0,11.74,5H11.2a1.08,1.08,0,0,0-1.08,1.08v4.06h-4A1.08,1.08,0,0,0,5,11.23v.54a1.08,1.08,0,0,0,1.08,1.08h4v4.06A1.08,1.08,0,0,0,11.2,18h.54a1.07,1.07,0,0,0,1.07-1.08Z"/></g></g></svg>