<svg xmlns="http://www.w3.org/2000/svg" viewBox="0 0 25 25"><defs><style>.cls-1{fill:var(--icon-color-1);}.cls-2{fill:var(--icon-color-2);}</style></defs><g id="Calque_2" data-name="Calque 2"><g id="Calque_1-2" data-name="Calque 1"><circle class="cls-1" cx="12.5" cy="12.5" r="12.5"/><path class="cls-2" d="M14,18.43h3.38a.85.85,0,0,0,.92-.83v-.15a1,1,0,0,0-.95-.86H14.43c-.24,0-.49,0-.49-.25s.27-.67.52-.67h4.72a.87.87,0,0,0,.95-.71v-.15a1,1,0,0,0-.92-1H14.45a.45.45,0,0,1-.45-.45.46.46,0,0,1,.45-.46h6.06a.85.85,0,0,0,.94-.71.81.81,0,0,0,0-.16,1,1,0,0,0-.92-1H14.45a.47.47,0,0,1-.45-.47.45.45,0,0,1,.45-.45h4.73a.86.86,0,0,0,.95-.7V9.3a1,1,0,0,0-.92-1H12.34c-.26,0-.43-.09-.43-.31A.29.29,0,0,1,12,7.78l1-1.07a.88.88,0,0,0,.27-.63.9.9,0,0,0-.27-.64.92.92,0,0,0-1.29,0c-.95.73-1.89,1.46-2.85,2.17-1.19.87-2,1.71-3.58,1.83A.39.39,0,0,0,5,9.82v6.79c0,.68,1.46.6,1.88.69,1.09.23,2.07.75,3.17.92A26.35,26.35,0,0,0,14,18.43Z"/></g></g></svg>
