<svg xmlns="http://www.w3.org/2000/svg" viewBox="0 0 74.77 75"><defs><style>.cls-1{fill:var(--icon-color-1);}.cls-2{fill:var(--icon-color-2);}</style></defs><g id="Calque_2" data-name="Calque 2"><g id="Objets"><path id="Tracé_50" data-name="Tracé 50" class="cls-1" d="M10.94,64a37.45,37.45,0,1,0,0-53h0A37.61,37.61,0,0,0,10.94,64Z"/><path id="Tracé_51" data-name="Tracé 51" class="cls-2" d="M41.78,41.91H55a3.53,3.53,0,0,0,3.52-3.53V36.62A3.53,3.53,0,0,0,55,33.09H41.78V19.86a3.52,3.52,0,0,0-3.51-3.53H36.51A3.52,3.52,0,0,0,33,19.86V33.09H19.79a3.53,3.53,0,0,0-3.52,3.53v1.76a3.54,3.54,0,0,0,3.52,3.53H33V55.14a3.52,3.52,0,0,0,3.52,3.53h1.76a3.52,3.52,0,0,0,3.51-3.53Z"/><path id="Tracé_51-2" data-name="Tracé 51" class="cls-2" d="M41.78,41.91H55a3.53,3.53,0,0,0,3.52-3.53V36.62A3.53,3.53,0,0,0,55,33.09H41.78V19.86a3.52,3.52,0,0,0-3.51-3.53H36.51A3.52,3.52,0,0,0,33,19.86V33.09H19.79a3.53,3.53,0,0,0-3.52,3.53v1.76a3.54,3.54,0,0,0,3.52,3.53H33V55.14a3.52,3.52,0,0,0,3.52,3.53h1.76a3.52,3.52,0,0,0,3.51-3.53Z"/></g></g></svg>