<svg xmlns="http://www.w3.org/2000/svg" viewBox="0 0 21 23"><defs><style>.cls-1{fill:var(--icon-color-1);}</style></defs><g id="Calque_2" data-name="Calque 2"><g id="MENU_s_" data-name="MENU(s)"><g id="Groupe_92" data-name="Groupe 92"><g id="Groupe_96" data-name="Groupe 96"><g id="Groupe_95" data-name="Groupe 95"><g id="Groupe_94" data-name="Groupe 94"><g id="Groupe_93" data-name="Groupe 93"><g id="Groupe_91" data-name="Groupe 91"><g id="Groupe_90" data-name="Groupe 90"><path id="Tracé_78" data-name="Tracé 78" class="cls-1" d="M10.5,13.69a6.65,6.65,0,0,0,6.43-6.84A6.65,6.65,0,0,0,10.5,0,6.66,6.66,0,0,0,4.06,6.85,6.66,6.66,0,0,0,10.5,13.69Zm0-11.86a4.88,4.88,0,0,1,4.72,5,4.89,4.89,0,0,1-4.72,5,4.88,4.88,0,0,1-4.72-5A4.87,4.87,0,0,1,10.5,1.83Z"/><path id="Tracé_79" data-name="Tracé 79" class="cls-1" d="M15.74,12.61A8,8,0,0,1,14,13.75a9.13,9.13,0,0,1,5.16,7.42H1.79A9.15,9.15,0,0,1,7,13.75a7.72,7.72,0,0,1-1.69-1.14A11,11,0,0,0,0,22.09V23H21v-.91A11,11,0,0,0,15.74,12.61Z"/></g></g></g></g></g></g></g></g></g></svg>