<svg xmlns="http://www.w3.org/2000/svg" viewBox="0 0 25 25"><defs><style>.cls-1{fill:var(--icon-color-1);}.cls-2{fill:var(--icon-color-2);}.cls-3{fill:var(--icon-color-3);}</style></defs><g id="Calque_2" data-name="Calque 2"><g id="Calque_1-2" data-name="Calque 1"><circle class="cls-1" cx="12.5" cy="12.5" r="11.39"/><path class="cls-2" d="M12.5,25A12.5,12.5,0,1,1,25,12.5,12.52,12.52,0,0,1,12.5,25Zm0-22.78A10.28,10.28,0,1,0,22.78,12.5,10.29,10.29,0,0,0,12.5,2.22Z"/><path class="cls-3" d="M13.85,17.59h3.08a.77.77,0,0,0,.84-.76.57.57,0,0,0,0-.13.9.9,0,0,0-.86-.79H14.24c-.22,0-.45,0-.45-.23s.25-.6.48-.6h4.3a.78.78,0,0,0,.86-.65v-.15a.87.87,0,0,0-.84-.88H14.25a.41.41,0,0,1-.4-.42.42.42,0,0,1,.41-.42h5.52a.78.78,0,0,0,.86-.64s0-.11,0-.15a.88.88,0,0,0-.84-.88H14.26a.42.42,0,0,1-.41-.43.41.41,0,0,1,.41-.41h4.31a.78.78,0,0,0,.86-.63V9.26a.88.88,0,0,0-.84-.89H12.33c-.23,0-.38-.08-.38-.28a.28.28,0,0,1,.1-.21l.94-1a.77.77,0,0,0,.25-.58A.79.79,0,0,0,13,5.75a.83.83,0,0,0-1.17,0c-.87.66-1.73,1.33-2.6,2C8.13,8.52,7.35,9.29,6,9.39a.36.36,0,0,0-.33.35v6.19c0,.62,1.33.55,1.71.63,1,.2,1.88.68,2.89.84A24.33,24.33,0,0,0,13.85,17.59Z"/><rect class="cls-2" x="0.32" y="10.53" width="22.65" height="2.22" transform="translate(-4.82 11.64) rotate(-45)"/></g></g></svg>
