<?xml version="1.0" encoding="utf-8"?>
<!-- Svg Vector Icons : http://www.onlinewebfonts.com/icon -->
<!DOCTYPE svg PUBLIC "-//W3C//DTD SVG 1.1//EN" "http://www.w3.org/Graphics/SVG/1.1/DTD/svg11.dtd">
<svg version="1.1" xmlns="http://www.w3.org/2000/svg" xmlns:xlink="http://www.w3.org/1999/xlink" x="0px" y="0px" viewBox="0 0 1000 1000" enable-background="new 0 0 1000 1000" xml:space="preserve">
<metadata> Svg Vector Icons : http://www.onlinewebfonts.com/icon </metadata>
<defs><style>.cls-1{fill:var(--icon-color-1);}.cls-2{fill:var(--icon-color-2);transform: scale(0.6);transform-origin: center;}</style></defs>
<g><circle class="cls-1" cx="500" cy="500" r="500"/><path class="cls-2" d="M463.6,16.4c25.5,0,49.2,0,74.7,0c102,14.6,202.2,38.3,280.5,96.5C908,178.5,966.3,271.4,990,389.8c0,21.9,0,43.7,0,65.6C964.5,604.7,877.1,704.9,758.7,765c-63.8,127.5-191.3,200.4-347.9,218.6c-12.8,0-25.5,0-36.4,0c-9.1-7.3-21.9-10.9-23.7-29.1c-1.8-29.1,36.4-43.7,60.1-65.6c27.3-23.7,45.5-45.5,60.1-61.9C305.1,816,144.8,735.9,66.5,613.8c-31-47.4-40.1-100.2-56.5-162.1c0-20,0-41.9,0-61.9c23.7-122,83.8-211.3,174.9-276.9C263.2,54.6,361.6,30.9,463.6,16.4z M680.3,779.6c12.8-16.4,16.4-41.9,31-56.5c12.8-14.6,32.8-18.2,49.2-29.1C866.1,632.1,971.8,482.7,908,318.8C853.4,180.3,684,80.1,501.8,80.1c-189.4-1.8-355.2,100.2-408,236.8c-14.6,38.3-21.9,98.4-16.4,140.3C101.1,644.8,294.2,755.9,483.6,765c31,1.8,61.9-3.6,71,16.4c16.4,41.9-49.2,91.1-61.9,122C580.1,874.3,634.8,839.7,680.3,779.6z"/><path d="M751.4,320.6c34.6,63.8-60.1,51-120.2,51c-92.9,0-173,0-264.1,0c-40.1,0-109.3,5.5-120.2-10.9c-38.3-63.8,98.4-49.2,145.7-49.2c40.1,0,82,0,122,0C602,311.5,687.6,306,751.4,320.6z"/><path d="M261.4,499.1c14.6-7.3,87.4-3.6,127.5-3.6c87.4,0,167.6,0,256.8,0c58.3,0,105.7-9.1,111.1,23.7c7.3,47.4-54.6,40.1-102,40.1c-103.8,0-182.2,0-284.2,0c-34.6,0-111.1,9.1-122-16.4C241.3,528.2,243.2,510,261.4,499.1z"/></g>
</svg>