<svg xmlns="http://www.w3.org/2000/svg" viewBox="0 0 78 78"><defs><style>.cls-1{fill:var(--icon-color-1);}.cls-2{fill:var(--icon-color-2);}</style></defs><g id="Calque_2" data-name="Calque 2"><g id="ICONS"><circle class="cls-1" cx="39" cy="39" r="35"/><path class="cls-2" d="M39,78A39,39,0,1,1,78,39,39.05,39.05,0,0,1,39,78ZM39,4A35,35,0,1,0,74,39,35,35,0,0,0,39,4Z"/><path id="Tracé_92" data-name="Tracé 92" class="cls-2" d="M58.29,32.06a3.65,3.65,0,0,0-1-1.63l-3.72-3.71a3.46,3.46,0,0,0-1.63-1,1.3,1.3,0,0,0-1.32.21L34.51,42.09,28,35.63a2,2,0,0,0-1.67-.57,2.68,2.68,0,0,0-1.78.83L20.87,39.6A2.8,2.8,0,0,0,20,41.38a2,2,0,0,0,.58,1.68l6.46,6.46,7.43,7.42,7.42-7.42L58.07,33.38A1.32,1.32,0,0,0,58.29,32.06Z"/></g></g></svg>