<?xml version="1.0" standalone="no"?>
<!DOCTYPE svg PUBLIC "-//W3C//DTD SVG 20010904//EN"
 "http://www.w3.org/TR/2001/REC-SVG-20010904/DTD/svg10.dtd">
<svg xmlns="http://www.w3.org/2000/svg" version="1.0" width="50" height="50" viewBox="0 0 50 50" preserveAspectRatio="xMidYMid meet">
<defs><style>.cls-1{fill:var(--icon-color-1);}</style></defs>
<g transform="translate(0.000000,50.000000) scale(0.100000,-0.100000)" fill="#000000" stroke="none">
<path class="cls-1" d="M218 489 c-12 -6 -18 -22 -18 -45 0 -43 34 -64 75 -46 20 9 25 19 25 46 0 48 -40 70 -82 45z"/>
<path class="cls-1" d="M190 367 c-27 -9 -40 -23 -57 -59 -13 -26 -36 -55 -53 -65 -16 -9 -30 -24 -30 -32 0 -12 3 -12 12 -3 7 7 25 12 40 12 18 0 38 10 53 26 l25 27 0 -31 c0 -17 -6 -32 -12 -35 -7 -2 8 -15 35 -28 l47 -23 48 23 c26 13 41 26 35 28 -7 3 -13 18 -13 35 l0 31 25 -27 c15 -16 35 -26 53 -26 15 0 33 -5 40 -12 9 -9 12 -9 12 3 0 8 -14 23 -31 33 -18 11 -38 36 -49 61 -10 24 -28 48 -39 54 -33 18 -103 22 -141 8z"/>
<path class="cls-1" d="M77 193 c-20 -19 -4 -45 38 -64 41 -18 47 -19 75 -4 16 8 30 18 30 20 0 3 -22 16 -50 30 -49 25 -81 31 -93 18z"/>
<path class="cls-1" d="M283 152 c-108 -57 -124 -69 -116 -88 8 -22 30 -17 148 34 97 42 110 51 110 72 0 40 -40 35 -142 -18z"/>
<path class="cls-1" d="M303 73 c-20 -7 -15 -23 6 -23 10 0 21 7 25 15 5 15 -7 18 -31 8z"/>
<path class="cls-1" d="M110 10 c0 -6 53 -10 140 -10 87 0 140 4 140 10 0 6 -53 10 -140 10 -87 0 -140 -4 -140 -10z"/>
</g>
</svg>