<svg xmlns="http://www.w3.org/2000/svg" viewBox="0 0 28 25.01"><defs><style>.cls-1{fill:#7b57bb;}</style></defs><g id="Calque_2" data-name="Calque 2"><g id="ICONS"><path id="Tracé_12" data-name="Tracé 12" class="cls-1" d="M17.21,14.19a10.77,10.77,0,0,0-1.06-.44,7.49,7.49,0,1,0-8.28,0A12,12,0,0,0,0,25H2A10,10,0,0,1,12,15a9.91,9.91,0,0,1,4.34,1ZM6.5,7.51A5.5,5.5,0,1,1,12,13,5.5,5.5,0,0,1,6.5,7.51Z"/><path id="Tracé_13" data-name="Tracé 13" class="cls-1" d="M28,16.77a1.2,1.2,0,0,0-.32-.53L26.42,15a1.17,1.17,0,0,0-.54-.33.44.44,0,0,0-.44.07l-5.33,5.34L18,18a.67.67,0,0,0-.56-.18.9.9,0,0,0-.59.27L15.6,19.27a.91.91,0,0,0-.28.59.7.7,0,0,0,.19.55l2.14,2.14L20.11,25l2.45-2.45,5.34-5.34A.44.44,0,0,0,28,16.77Z"/></g></g></svg>