<svg xmlns="http://www.w3.org/2000/svg" viewBox="0 0 23 23"><defs><style>.cls-1{fill:var(--icon-color-1);}</style></defs><g id="Calque_2" data-name="Calque 2"><g id="MENU_s_" data-name="MENU(s)"><g id="Groupe_99" data-name="Groupe 99"><g id="Groupe_98" data-name="Groupe 98"><g id="Groupe_97" data-name="Groupe 97"><g id="key"><path id="Tracé_80" data-name="Tracé 80" class="cls-1" d="M15.82,0A7.19,7.19,0,0,0,8.63,7.19,7.09,7.09,0,0,0,9.14,9.8L.41,18.53a1.15,1.15,0,0,0-.41.88v2.15A1.47,1.47,0,0,0,1.44,23H3.59a1.17,1.17,0,0,0,.89-.41l1-1H7.19a1.43,1.43,0,0,0,1.44-1.44V18.69h1.44a1.44,1.44,0,0,0,1.43-1.44V15.56l1.7-1.7a7.1,7.1,0,0,0,2.61.52A7.19,7.19,0,0,0,15.82,0Zm0,12.94a5.67,5.67,0,0,1-2.9-.82l-.25.25-.81.81-1.37,1.37a1.43,1.43,0,0,0-.42,1v1.68H8.63A1.43,1.43,0,0,0,7.2,18.69h0v1.44H5.51a1.42,1.42,0,0,0-1,.42l-1,1h-2V19.52l8.38-8.37h0l1.06-1.06a5.7,5.7,0,0,1-.82-2.9,5.75,5.75,0,1,1,5.75,5.74Z"/><path id="Tracé_81" data-name="Tracé 81" class="cls-1" d="M20,5.92A12.56,12.56,0,0,0,17.08,3a.65.65,0,0,0-.63-.09,3.18,3.18,0,0,0-2,2,.85.85,0,0,0,0,.23.66.66,0,0,0,.13.4,12.76,12.76,0,0,0,2.91,2.91.68.68,0,0,0,.63.09,3.14,3.14,0,0,0,2-2,.57.57,0,0,0,0-.22A.67.67,0,0,0,20,5.92Z"/></g></g></g></g></g></g></svg>