<svg xmlns="http://www.w3.org/2000/svg" viewBox="0 0 45 45"><defs><style>.cls-1{fill:var(--icon-color-1);}.cls-2{fill:var(--icon-color-2);}</style></defs><g id="Calque_2" data-name="Calque 2"><g id="Objets"><circle class="cls-1" cx="22.5" cy="22.5" r="22.5"/><path class="cls-2" d="M16.68,23.19l-1.19,4.95a1.14,1.14,0,0,0,1.37,1.37l4.95-1.19,8.89-8.9L25.58,14.3Z"/><rect class="cls-2" x="28.65" y="11.38" width="2.67" height="7.25" transform="translate(-1.83 25.6) rotate(-45)"/><path class="cls-2" d="M30.16,33.5H14.27a2.77,2.77,0,0,1-2.77-2.77V14.84a2.78,2.78,0,0,1,2.77-2.78h8.26a.86.86,0,0,1,0,1.72H14.27a1.06,1.06,0,0,0-1.06,1.06V30.73a1.07,1.07,0,0,0,1.06,1.06H30.16a1.06,1.06,0,0,0,1.06-1.06V22.47a.86.86,0,0,1,1.72,0v8.26A2.78,2.78,0,0,1,30.16,33.5Z"/></g></g></svg>