<svg xmlns="http://www.w3.org/2000/svg" viewBox="0 0 23 23"><defs><style>.cls-1{fill:var(--icon-color-1);}</style></defs><g id="Calque_2" data-name="Calque 2"><g id="MENU_s_" data-name="MENU(s)"><path id="Tracé_86" data-name="Tracé 86" class="cls-1" d="M21.09,2.16H18V.72a.72.72,0,1,0-1.44,0h0V2.16H12.22V.72A.72.72,0,0,0,11.5,0h0a.72.72,0,0,0-.72.72V2.16H6.47V.72A.72.72,0,1,0,5,.72H5V2.16H1.92A1.91,1.91,0,0,0,0,4.07H0v17A1.92,1.92,0,0,0,1.92,23H21.08A1.92,1.92,0,0,0,23,21.08h0v-17A1.92,1.92,0,0,0,21.09,2.16Zm-6,12.22V12.22H18v2.16ZM18,15.81V18H15.1V15.81Zm-2.87-5V8.63H18v2.15Zm-5,3.6V12.22h2.88v2.16Zm2.88,1.43V18H10.06V15.81Zm-2.88-5V8.63h2.88v2.15Zm-5,0V8.63H7.91v2.15Zm2.88,1.44v2.16H5V12.22ZM5,15.81H7.91V18H5Z"/></g></g></svg>