<svg xmlns="http://www.w3.org/2000/svg" viewBox="0 0 15 12.66"><defs><style>.cls-1{fill:var(--icon-color-1);}.cls-2{fill:var(--icon-color-2);}</style></defs><g id="Calque_2" data-name="Calque 2"><g id="TEXTES"><path class="cls-1" d="M14.77,10,9,.84a1.8,1.8,0,0,0-3,0L.24,10v0a1.78,1.78,0,0,0,1.54,2.67H13.22A1.79,1.79,0,0,0,15,10.88,1.63,1.63,0,0,0,14.77,10Z"/><path class="cls-2" d="M7.51,9.25A.68.68,0,0,0,7,9.46a.71.71,0,0,0-.21.51.6.6,0,0,0,.23.52.74.74,0,0,0,1,0A.64.64,0,0,0,8.24,10,.71.71,0,0,0,8,9.46.77.77,0,0,0,7.51,9.25Z"/><path class="cls-2" d="M7.54,3.4A.72.72,0,0,0,7,3.63a.89.89,0,0,0-.21.63c0,.19,0,.52,0,1L7,7.53a2.12,2.12,0,0,0,.14.66.39.39,0,0,0,.36.23.36.36,0,0,0,.37-.23A2,2,0,0,0,8,7.54l.23-2.37c0-.23,0-.44,0-.65A2,2,0,0,0,8.1,3.7.55.55,0,0,0,7.54,3.4Z"/></g></g></svg>