<svg xmlns="http://www.w3.org/2000/svg" viewBox="0 0 45 45"><defs><style>.cls-1{fill:var(--icon-color-1);}.cls-2{fill:var(--icon-color-2);}</style></defs><g id="Calque_2" data-name="Calque 2"><g id="Objets"><circle class="cls-1" cx="22.5" cy="22.5" r="22.5"/><path id="Tracé_86" data-name="Tracé 86" class="cls-2" d="M31.67,13.56h-3V12.19a.69.69,0,0,0-1.38,0h0v1.37H23.19V12.19a.69.69,0,0,0-.69-.69h0a.69.69,0,0,0-.69.69v1.37H17.69V12.19a.69.69,0,1,0-1.38,0h0v1.37h-3a1.83,1.83,0,0,0-1.83,1.83h0V31.67a1.83,1.83,0,0,0,1.83,1.83H31.67a1.83,1.83,0,0,0,1.83-1.83h0V15.4A1.83,1.83,0,0,0,31.67,13.56ZM26.73,25.49V23h3.38v2.54Zm3.38,1.69v2.53H26.73V27.18Zm-3.38-5.92V18.73h3.38v2.53Zm-5.92,4.23V23h3.38v2.54Zm3.38,1.69v2.53H20.81V27.18Zm-3.38-5.92V18.73h3.38v2.53Zm-5.91,0V18.73h3.38v2.53ZM18.28,23v2.54H14.9V23ZM14.9,27.18h3.38v2.53H14.9Z"/></g></g></svg>