<svg xmlns="http://www.w3.org/2000/svg" viewBox="0 0 18 23"><defs><style>.cls-1{fill:var(--icon-color-1);}</style></defs><g id="Calque_2" data-name="Calque 2"><g id="MENU_s_" data-name="MENU(s)"><path id="Tracé_84" data-name="Tracé 84" class="cls-1" d="M16.5,10.06H15V5.75A5.88,5.88,0,0,0,9,0,5.88,5.88,0,0,0,3,5.75v4.31H1.5A1.48,1.48,0,0,0,0,11.5V21.56A1.48,1.48,0,0,0,1.5,23h15A1.48,1.48,0,0,0,18,21.56V11.5A1.48,1.48,0,0,0,16.5,10.06ZM9,18.69a1.48,1.48,0,0,1-1.5-1.44h0A1.47,1.47,0,0,1,9,15.81H9a1.44,1.44,0,1,1,0,2.88Zm3-8.63H6V5.75A2.94,2.94,0,0,1,9,2.88a2.94,2.94,0,0,1,3,2.88Z"/></g></g></svg>