<svg xmlns="http://www.w3.org/2000/svg" viewBox="0 0 27.72 25.47"><defs><style>.cls-1{fill:var(--icon-color-1);}</style></defs><g id="Calque_2" data-name="Calque 2"><g id="Objets"><path id="Tracé_84" data-name="Tracé 84" class="cls-1" d="M26.84,17.9H26V15.37a3.52,3.52,0,0,0-7,0V17.9h-.88a.87.87,0,0,0-.88.84v5.89a.87.87,0,0,0,.88.84h8.78a.86.86,0,0,0,.88-.84V18.74A.85.85,0,0,0,26.84,17.9Zm-4.39,6.3a2.13,2.13,0,0,1-2.18-2.09h0A2.13,2.13,0,0,1,22.45,20h0a2.1,2.1,0,1,1,0,4.19Zm1.76-6.3H20.7V15.37a1.76,1.76,0,0,1,3.51,0Z"/><path id="Tracé_12" data-name="Tracé 12" class="cls-1" d="M17.21,14.19a10.77,10.77,0,0,0-1.06-.44,7.49,7.49,0,1,0-8.28,0A12,12,0,0,0,0,25H2A10,10,0,0,1,12,15a9.91,9.91,0,0,1,4.34,1ZM6.5,7.51A5.5,5.5,0,1,1,12,13,5.5,5.5,0,0,1,6.5,7.51Z"/></g></g></svg>