<svg xmlns="http://www.w3.org/2000/svg" viewBox="0 0 20 20"><defs><style>.cls-1{fill:var(--icon-color-1);}.cls-2{fill:var(--icon-color-2);}</style></defs><g id="Calque_2" data-name="Calque 2"><g id="ICONS"><circle class="cls-1" cx="10" cy="10" r="10"/><path class="cls-2" d="M11.4,6a1.64,1.64,0,0,0-1.25-.5,2,2,0,0,0-1.49.53,2,2,0,0,0-.51,1.45A.68.68,0,0,1,8,8a.66.66,0,0,1-.51.21A.68.68,0,0,1,6.94,8a.69.69,0,0,1-.2-.5,3.4,3.4,0,0,1,.42-1.7,2.94,2.94,0,0,1,1.2-1.17,3.81,3.81,0,0,1,1.79-.41,3.34,3.34,0,0,1,1.59.38,2.75,2.75,0,0,1,1.12,1.07,3,3,0,0,1,.4,1.55A3.29,3.29,0,0,1,13,8.54a3.46,3.46,0,0,1-.63,1,11.57,11.57,0,0,1-1,1,1.56,1.56,0,0,0-.49.7,2.54,2.54,0,0,0-.15.8.67.67,0,0,1-.7.71.71.71,0,0,1-.51-.2A.69.69,0,0,1,9.3,12a3,3,0,0,1,.29-1.21,3.17,3.17,0,0,1,.85-1.11,8.88,8.88,0,0,0,.79-.74,2.58,2.58,0,0,0,.46-.7,2.51,2.51,0,0,0,.19-1A1.66,1.66,0,0,0,11.4,6Zm-.71,9.06a.94.94,0,0,1,.29.69.92.92,0,0,1-.29.67.93.93,0,0,1-.68.28.89.89,0,0,1-.67-.28.92.92,0,0,1-.29-.67.94.94,0,0,1,.29-.69.89.89,0,0,1,.67-.28A.93.93,0,0,1,10.69,15.09Z"/></g></g></svg>