<?xml version="1.0" standalone="no"?>
<!DOCTYPE svg PUBLIC "-//W3C//DTD SVG 20010904//EN"
 "http://www.w3.org/TR/2001/REC-SVG-20010904/DTD/svg10.dtd">
<svg version="1.0" xmlns="http://www.w3.org/2000/svg"
 width="512.000000pt" height="512.000000pt" viewBox="0 0 512.000000 512.000000"
 preserveAspectRatio="xMidYMid meet">
<defs><style>.cls-1{fill:var(--icon-color-1);}</style></defs>

<g transform="translate(0.000000,512.000000) scale(0.100000,-0.100000)"
fill="#000000" stroke="none">
<path class="cls-1" d="M2455 4794 c-16 -2 -73 -9 -125 -15 -523 -59 -1039 -316 -1402 -698
-313 -329 -510 -728 -584 -1186 -23 -138 -26 -521 -6 -665 70 -488 258 -899
561 -1223 336 -358 842 -599 1401 -669 158 -20 583 -16 745 6 600 81 1062 286
1408 623 42 42 77 79 77 83 0 4 -70 84 -156 176 -86 93 -160 173 -164 177 -4
4 -43 -23 -86 -60 -270 -233 -588 -400 -891 -468 -132 -30 -270 -46 -443 -52
-1044 -36 -1772 555 -1870 1516 -73 726 241 1399 810 1736 252 148 513 220
840 232 825 29 1433 -351 1626 -1017 45 -154 58 -260 58 -475 0 -277 -31 -438
-116 -612 -103 -208 -245 -313 -425 -313 -139 0 -184 53 -191 225 -5 121 23
280 182 1030 57 270 100 493 97 498 -4 4 -126 6 -271 5 l-264 -3 -23 -114
c-13 -63 -25 -116 -27 -119 -3 -2 -14 15 -26 39 -53 104 -188 207 -325 249
-200 61 -487 36 -695 -61 -173 -80 -379 -261 -493 -430 -281 -422 -335 -996
-131 -1389 84 -162 187 -265 339 -340 128 -64 215 -82 390 -83 209 -1 326 30
469 123 84 55 218 179 261 240 15 22 33 40 40 40 7 0 15 -20 18 -50 29 -241
297 -388 641 -351 265 29 472 123 656 297 178 170 305 389 375 648 96 354 84
815 -31 1164 -94 289 -292 581 -525 777 -317 265 -715 431 -1194 495 -83 11
-477 22 -530 14z m350 -1593 c163 -81 233 -249 222 -536 -8 -208 -56 -370
-152 -515 -122 -183 -299 -275 -498 -256 -89 8 -143 32 -208 93 -94 88 -132
198 -131 382 1 177 45 358 123 515 50 100 94 160 170 230 104 97 186 127 322
122 74 -3 98 -8 152 -35z"/>
</g>
</svg>
