<svg xmlns="http://www.w3.org/2000/svg" viewBox="0 0 23 23"><defs><style>.cls-1{fill:var(--icon-color-1);}</style></defs><g id="Calque_2" data-name="Calque 2"><g id="MENU_s_" data-name="MENU(s)"><path id="Tracé_83" data-name="Tracé 83" class="cls-1" d="M19.84,8.86l-.59-1.41a25.29,25.29,0,0,0,1.24-3.23L18.7,2.44a22.44,22.44,0,0,0-3.17,1.3l-1.41-.58A25.55,25.55,0,0,0,12.71,0H10.18A24.23,24.23,0,0,0,8.86,3.16l-1.41.58A26.19,26.19,0,0,0,4.22,2.51L2.44,4.3a23.7,23.7,0,0,0,1.3,3.17L3.15,8.88A26.1,26.1,0,0,0,0,10.29v2.53a25.75,25.75,0,0,0,3.16,1.33l.58,1.4a25.6,25.6,0,0,0-1.23,3.23L4.3,20.56a23.46,23.46,0,0,0,3.17-1.3l1.41.59A26.1,26.1,0,0,0,10.29,23h2.52a24.29,24.29,0,0,0,1.33-3.16l1.41-.59a25.29,25.29,0,0,0,3.23,1.24l1.79-1.79a23.75,23.75,0,0,0-1.31-3.17l.58-1.41A25.55,25.55,0,0,0,23,12.71V10.18A25.7,25.7,0,0,0,19.84,8.86ZM15.18,11.5A3.69,3.69,0,1,1,11.5,7.82,3.69,3.69,0,0,1,15.18,11.5Z"/></g></g></svg>