<?xml version="1.0" encoding="UTF-8"?> <!-- Generator: Adobe Illustrator 22.1.0, SVG Export Plug-In . SVG Version: 6.00 Build 0) --> 
<svg xmlns="http://www.w3.org/2000/svg" xmlns:xlink="http://www.w3.org/1999/xlink" id="Layer_1" x="0px" y="0px" viewBox="0 0 148.1 148" style="enable-background:new 0 0 148.1 148;" xml:space="preserve"> 
  <style type="text/css"> .bg{fill:var(--icon-color-1);} .fg{fill:var(--icon-color-2);} </style> 
  <path class="fg" d="M148.1,78c0,23.3,0,46.6,0,70c-24.3,0-48.6,0-72.8,0c2.8-1.5,3.9-3.3,3.3-5.5c-0.6-2.3-2.3-3.5-4.9-3.7 c-3.1-0.2-6.3-0.2-9.3-0.7c-10.4-1.6-19.8-5.5-28.4-11.7c-22.4-16.1-32.1-45.9-23.7-72c8.2-25.2,30.7-42.8,56.1-44.9 c12.1-1,23.7,0.9,34.4,6.5C124,27,136.1,44.5,138.6,68.5c1.1,10.2-0.9,19.8-6.2,28.7c-5.2,8.5-12.3,14.5-22.5,16c-1,0.1-2,0.1-3,0.2 c0.3-0.6,0.7-0.8,1-1.1c3.9-3.1,7-6.7,7.8-11.9c0.2-1.8,0.5-3.5,1-5.2c0.7-2.3-0.1-3.9-1.9-5.3c-3.9-3.1-8.4-4.9-13.1-6 c-1.6-0.4-3.4-0.4-5.1-0.4c-1.6,0-2.5,1.1-2.9,2.7c-0.7,2.9-1.4,5.9-2.3,8.8c-0.7,2.2-2,2.8-4.1,2c-1.2-0.4-2.4-1.1-3.3-2 c-9.9-9.7-19.7-19.5-29.5-29.3c-1-1-2-2.1-2.7-3.3c-1.7-3-1.5-5.2,2.2-6.1c2.7-0.7,5.4-1.3,8.1-2c1.4-0.3,2.2-1.1,2.4-2.5 c0.1-1,0.2-2,0.1-3c-0.5-4.8-2.4-9.1-4.8-13.2c-0.7-1.2-1.7-2.3-2.7-3.4c-0.9-1-2-1.3-3.4-1c-1.8,0.4-3.6,0.5-5.4,1 c-2,0.5-4.2,0.8-5.9,1.8C35,38.5,31.4,45.4,31.1,54c-0.3,7.7,2.1,14.7,6.9,20.7C47,86,57,96.4,67.8,106.1 c7.6,6.9,16.2,12.4,26.3,15.1c12.3,3.4,23.9,1.6,34.3-6c10.3-7.5,15.9-18.1,18.6-30.3C147.4,82.7,147.7,80.3,148.1,78z M75.6,30.1 c12.3,0.2,22.9,4.5,31.5,13.2c8.6,8.7,12.9,19.3,13.1,31.5c2.7,0,5,0,7.4,0c0.7-29.2-25.2-53.1-52-52C75.6,25.1,75.6,27.5,75.6,30.1 z M75.6,42.9c19.3,2.1,29.8,12.6,31.8,31.9c2.3,0,4.8,0,7.2,0c0.5-21.8-18.8-39.8-39-39C75.6,38.1,75.6,40.5,75.6,42.9z"></path> 
  <path class="bg" d="M148.1,78c-0.4,2.3-0.7,4.6-1.2,6.9c-2.7,12.2-8.3,22.8-18.6,30.3c-10.4,7.6-21.9,9.4-34.3,6c-10-2.8-18.6-8.2-26.3-15.1 C57,96.4,47,86,38,74.7c-4.8-6-7.1-13-6.9-20.7c0.3-8.6,3.9-15.5,11.4-20c1.7-1,3.9-1.4,5.9-1.8c1.8-0.4,3.6-0.6,5.4-1 c1.4-0.3,2.5,0,3.4,1c1,1.1,1.9,2.2,2.7,3.4c2.4,4.1,4.2,8.4,4.8,13.2c0.1,1,0,2-0.1,3c-0.2,1.4-1.1,2.2-2.4,2.5 c-2.7,0.6-5.4,1.3-8.1,2c-3.7,0.9-3.9,3.1-2.2,6.1c0.7,1.2,1.7,2.3,2.7,3.3c9.8,9.8,19.6,19.6,29.5,29.3c0.9,0.9,2.1,1.5,3.3,2 c2.2,0.8,3.5,0.2,4.1-2c0.9-2.9,1.6-5.8,2.3-8.8c0.4-1.6,1.3-2.7,2.9-2.7c1.7,0,3.5,0,5.1,0.4c4.8,1.1,9.2,3,13.1,6 c1.8,1.4,2.5,3,1.9,5.3c-0.5,1.7-0.7,3.5-1,5.2c-0.7,5.2-3.8,8.8-7.8,11.9c-0.3,0.3-0.7,0.5-1,1.1c1-0.1,2-0.1,3-0.2 c10.2-1.5,17.3-7.5,22.5-16c5.3-8.8,7.3-18.4,6.2-28.7C136.1,44.5,124,27,102.8,15.9C92,10.3,80.4,8.4,68.4,9.4 c-25.5,2.1-47.9,19.7-56.1,44.9c-8.5,26.2,1.3,55.9,23.7,72c8.6,6.2,18,10.1,28.4,11.7c3.1,0.5,6.2,0.5,9.3,0.7 c2.6,0.2,4.3,1.4,4.9,3.7c0.5,2.2-0.5,4-3.3,5.5c-2,0-4,0-6.1,0c-0.4-0.1-0.8-0.2-1.2-0.3c-3-0.4-6.1-0.7-9.1-1.3 c-19.1-4.2-34.4-14.3-45.6-30.4C1.2,98.6-2.6,79.3,1.7,58.7c3.1-15.3,10.6-28.4,22.2-39C41,4.1,61.3-2.2,84.3,0.7 c14.5,1.9,27.4,7.9,38.4,17.5c13.5,11.9,21.7,26.8,24.5,44.6c0.3,2.1,0.6,4.2,0.9,6.3C148.1,72.1,148.1,75,148.1,78z"></path> 
  <path class="bg"d="M75.6,30.1c0-2.6,0-5,0-7.4c26.8-1.1,52.7,22.8,52,52c-2.4,0-4.8,0-7.4,0c-0.2-12.2-4.4-22.8-13.1-31.5 C98.5,34.6,87.9,30.3,75.6,30.1z"></path> 
  <path class="bg"d="M75.6,42.9c0-2.3,0-4.7,0-7.1c20.2-0.8,39.5,17.1,39,39c-2.4,0-4.9,0-7.2,0C105.4,55.5,94.9,45,75.6,42.9z"></path> 
</svg> 