<svg xmlns="http://www.w3.org/2000/svg" viewBox="0 0 20.93 22"><defs><style>.cls-1{fill:var(--icon-color-1);}</style></defs><g id="Calque_2" data-name="Calque 2"><g id="Calque_1-2" data-name="Calque 1"><path class="cls-1" d="M18.94,14.45a8.24,8.24,0,0,0-5.84,1.13V9c.31.36.65.77,1,1.23,2.51,3.33,4.64,3.83,5.69,3.83a2.53,2.53,0,0,0,.54-.05.82.82,0,0,0-.4-1.6s-1.9.29-4.51-3.17a13.45,13.45,0,0,0-2.72-2.85,3.58,3.58,0,1,0-4.45,0A13.2,13.2,0,0,0,5.53,9.23C2.93,12.67,1,12.4,1,12.4a.84.84,0,0,0-.62.09A.8.8,0,0,0,0,13a.83.83,0,0,0,.58,1,2.44,2.44,0,0,0,.54.05c1.05,0,3.18-.5,5.69-3.83.35-.46.68-.87,1-1.23v6.59A8.27,8.27,0,0,0,2,14.45C.28,14.86.23,15.86.29,16.28c.21,1.49,3.17,3.11,6.16,4a2.54,2.54,0,0,0-.45.43.82.82,0,0,0,.13,1.15.85.85,0,0,0,1.15-.12,3.33,3.33,0,0,1,2.51-.87h0c.24,0,.47,0,.69,0s.42,0,.63,0h0a3.38,3.38,0,0,1,2.56.87.82.82,0,0,0,.64.3.83.83,0,0,0,.52-.19A.81.81,0,0,0,15,20.66a2.74,2.74,0,0,0-.47-.43c2.07-.61,6.18-2.23,6.16-4.17C20.65,15.61,20.42,14.8,18.94,14.45Zm-6.27,3.33c1.55-1.07,3.82-2.21,5.89-1.72a1.83,1.83,0,0,1,.39.12,12.26,12.26,0,0,1-5.31,2.57,12.49,12.49,0,0,1-2.61.44H9.84c-3.5-.2-7.3-2.26-7.85-3a1.71,1.71,0,0,1,.38-.12c2.08-.49,4.35.65,5.9,1.72a2.63,2.63,0,0,0,4.4,0ZM8.54,3.58a1.93,1.93,0,1,1,1.93,1.93A1.92,1.92,0,0,1,8.54,3.58Z"/></g></g></svg>