<svg xmlns="http://www.w3.org/2000/svg" viewBox="0 0 36.67 35"><defs><style>.cls-1{fill:var(--icon-color-1);}.cls-2{fill:var(--icon-color-2);}</style></defs><g id="Calque_2" data-name="Calque 2"><g id="TEXTES"><path class="cls-1" d="M18.33,33.44a17.32,17.32,0,0,1-6.5-1.25,16.63,16.63,0,0,1-5.31-3.42,15.93,15.93,0,0,1-3.58-5.06,15.37,15.37,0,0,1,0-12.42A15.93,15.93,0,0,1,6.52,6.23a16.63,16.63,0,0,1,5.31-3.42,17.55,17.55,0,0,1,13,0,16.74,16.74,0,0,1,5.31,3.42,15.93,15.93,0,0,1,3.58,5.06,15.37,15.37,0,0,1,0,12.42,15.93,15.93,0,0,1-3.58,5.06,16.74,16.74,0,0,1-5.31,3.42A17.33,17.33,0,0,1,18.33,33.44Z"/><path class="cls-1" d="M18.33,3.11A15.26,15.26,0,0,0,5.69,9.65a13.24,13.24,0,0,0-2.1,4.77,14.17,14.17,0,0,0,6.6,15.21,14.59,14.59,0,0,0,4.92,1.94A15.44,15.44,0,0,0,31,25.27a13.25,13.25,0,0,0,2.06-4.79A14,14,0,0,0,29,7.33,15.32,15.32,0,0,0,18.33,3.11m0-3.11C28.46,0,36.67,7.84,36.67,17.5S28.46,35,18.33,35,0,27.16,0,17.5,8.21,0,18.33,0Z"/><path id="Tracé_93" data-name="Tracé 93" class="cls-2" d="M21.31,17.5l4.45-4.26a1.55,1.55,0,0,0,0-2.27l-.59-.56a1.73,1.73,0,0,0-2.38,0l-4.46,4.25-4.46-4.25a1.72,1.72,0,0,0-2.37,0l-.6.56a1.56,1.56,0,0,0,0,2.27l4.46,4.26L10.9,21.76a1.56,1.56,0,0,0,0,2.27l.6.56a1.72,1.72,0,0,0,2.37,0l4.46-4.25,4.46,4.25a1.73,1.73,0,0,0,2.38,0l.59-.56a1.55,1.55,0,0,0,0-2.27Z"/></g></g></svg>