<?xml version="1.0" standalone="no"?>
<!DOCTYPE svg PUBLIC "-//W3C//DTD SVG 20010904//EN"
 "http://www.w3.org/TR/2001/REC-SVG-20010904/DTD/svg10.dtd">
<svg version="1.0" xmlns="http://www.w3.org/2000/svg"
 width="980.000000pt" height="918.000000pt" viewBox="0 0 980.000000 918.000000"
 preserveAspectRatio="xMidYMid meet">
<defs><style>.cls-1{fill:var(--icon-color-1);}</style></defs>

<g transform="translate(0.000000,918.000000) scale(0.100000,-0.100000)"
fill="#000000" stroke="none">
<path class="cls-1" d="M1738 9166 c-101 -27 -268 -165 -594 -491 -132 -132 -288 -296 -346
-365 -513 -611 -770 -1123 -795 -1584 -10 -197 34 -372 200 -791 417 -1050
962 -1941 1705 -2785 161 -183 603 -627 787 -791 1025 -913 2199 -1606 3520
-2079 564 -202 933 -280 1324 -280 l134 0 133 70 c306 161 617 370 859 579
298 257 697 685 935 1002 191 255 225 343 184 478 -30 102 -95 152 -681 526
-103 66 -426 275 -718 465 -628 410 -783 507 -842 527 -31 11 -69 14 -126 11
-89 -5 -150 -26 -204 -72 -18 -15 -110 -143 -205 -284 -292 -434 -466 -661
-614 -802 -154 -147 -230 -154 -471 -40 -337 159 -840 469 -1198 737 -482 363
-977 835 -1406 1343 -255 303 -618 781 -693 913 -87 155 -85 241 13 377 148
208 574 653 851 891 174 149 200 190 208 320 4 70 2 84 -22 134 -88 178 -740
988 -1216 1510 -155 170 -392 403 -446 438 -44 29 -140 57 -194 56 -19 0 -56
-6 -82 -13z"/>
</g>
</svg>
