<svg xmlns="http://www.w3.org/2000/svg" viewBox="0 0 22 22"><defs><style>.cls-1{fill:var(--icon-color-1);}.cls-2{fill:var(--icon-color-2);}</style></defs><g id="Calque_2" data-name="Calque 2"><g id="ICONS"><path id="Tracé_47" data-name="Tracé 47" class="cls-1" d="M11,22A11,11,0,1,0,0,11H0A11,11,0,0,0,11,22ZM11,2.93A8.07,8.07,0,1,1,2.93,11,8.06,8.06,0,0,1,11,2.93Z"/><path id="Tracé_48" data-name="Tracé 48" class="cls-1" d="M16.44,11.74a1.18,1.18,0,0,1-1.18,1.18H10.52a1.18,1.18,0,0,1-1.18-1.18h0V5.87a1.19,1.19,0,0,1,2.37,0v4.69h3.55A1.18,1.18,0,0,1,16.44,11.74Z"/></g></g></svg>