<svg xmlns="http://www.w3.org/2000/svg" viewBox="0 0 25 25"><defs><style>.cls-1{fill:var(--icon-color-1);}.cls-2{fill:var(--icon-color-2);}</style></defs><g id="Calque_2" data-name="Calque 2"><g id="Calque_1-2" data-name="Calque 1"><circle class="cls-1" cx="12.5" cy="12.5" r="12.5"/><path class="cls-2" d="M14.62,6.46a2.49,2.49,0,0,0-1.9-.75,3,3,0,0,0-2.25.8A3.06,3.06,0,0,0,9.71,8.7a1.07,1.07,0,0,1-.29.76,1.06,1.06,0,0,1-.78.3A1,1,0,0,1,7.58,8.7a5.18,5.18,0,0,1,.63-2.57A4.45,4.45,0,0,1,10,4.37a5.61,5.61,0,0,1,2.7-.63,4.94,4.94,0,0,1,2.41.58,4.23,4.23,0,0,1,1.69,1.61,4.59,4.59,0,0,1,.6,2.35,5.07,5.07,0,0,1-.35,2,5.34,5.34,0,0,1-1,1.5,14.51,14.51,0,0,1-1.57,1.43,2.21,2.21,0,0,0-.73,1.07,3.61,3.61,0,0,0-.23,1.21,1.06,1.06,0,0,1-.3.77,1.13,1.13,0,0,1-1.53,0,1,1,0,0,1-.31-.77,4.49,4.49,0,0,1,.44-1.84A4.82,4.82,0,0,1,13.16,12a14.8,14.8,0,0,0,1.2-1.11,3.94,3.94,0,0,0,.69-1.07,3.59,3.59,0,0,0,.28-1.5A2.53,2.53,0,0,0,14.62,6.46ZM13.55,17.93A1.43,1.43,0,0,1,14,19a1.4,1.4,0,0,1-.42,1,1.42,1.42,0,0,1-1,.43,1.35,1.35,0,0,1-1-.43,1.38,1.38,0,0,1-.43-1,1.4,1.4,0,0,1,.43-1,1.35,1.35,0,0,1,1-.43A1.42,1.42,0,0,1,13.55,17.93Z"/></g></g></svg>
