<svg xmlns="http://www.w3.org/2000/svg" viewBox="0 0 23 23"><defs><style>.cls-1{fill:var(--icon-color-1);}</style></defs><g id="Calque_2" data-name="Calque 2"><g id="MENU_s_" data-name="MENU(s)"><path id="Tracé_82" data-name="Tracé 82" class="cls-1" d="M21.09,2.16H18V.72a.72.72,0,1,0-1.44,0h0V2.16H12.22V.72A.72.72,0,0,0,11.5,0h0a.72.72,0,0,0-.72.72V2.16H6.47V.72A.72.72,0,0,0,5.75,0h0A.72.72,0,0,0,5,.72H5V2.16H1.92A1.91,1.91,0,0,0,0,4.07H0v17A1.92,1.92,0,0,0,1.92,23H21.08A1.92,1.92,0,0,0,23,21.08h0v-17A1.92,1.92,0,0,0,21.09,2.16Zm.47,18.92a.47.47,0,0,1-.47.48H1.92a.47.47,0,0,1-.48-.48v-17a.48.48,0,0,1,.48-.48H5V5a.72.72,0,0,0,.72.72h0A.72.72,0,0,0,6.47,5h0V3.59h4.31V5a.72.72,0,0,0,.72.72h0A.72.72,0,0,0,12.22,5h0V3.59h4.31V5a.72.72,0,0,0,.72.72h0A.72.72,0,0,0,18,5h0V3.59h3.12a.49.49,0,0,1,.48.48h0Z"/><rect id="Rectangle_34" data-name="Rectangle 34" class="cls-1" x="5.03" y="8.63" width="2.88" height="2.16"/><rect id="Rectangle_35" data-name="Rectangle 35" class="cls-1" x="5.03" y="12.22" width="2.88" height="2.16"/><rect id="Rectangle_36" data-name="Rectangle 36" class="cls-1" x="5.03" y="15.81" width="2.88" height="2.16"/><rect id="Rectangle_37" data-name="Rectangle 37" class="cls-1" x="10.06" y="15.81" width="2.88" height="2.16"/><rect id="Rectangle_38" data-name="Rectangle 38" class="cls-1" x="10.06" y="12.22" width="2.88" height="2.16"/><rect id="Rectangle_39" data-name="Rectangle 39" class="cls-1" x="10.06" y="8.63" width="2.88" height="2.16"/><rect id="Rectangle_40" data-name="Rectangle 40" class="cls-1" x="15.1" y="15.81" width="2.88" height="2.16"/><rect id="Rectangle_41" data-name="Rectangle 41" class="cls-1" x="15.1" y="12.22" width="2.88" height="2.16"/><rect id="Rectangle_42" data-name="Rectangle 42" class="cls-1" x="15.1" y="8.63" width="2.88" height="2.16"/></g></g></svg>