<svg xmlns="http://www.w3.org/2000/svg" viewBox="0 0 33 25.97"><defs><style>.cls-1{fill:var(--icon-color-1);}.cls-2{fill:var(--icon-color-2);}</style></defs><g id="Calque_2" data-name="Calque 2"><g id="ICONS"><path id="Tracé_9" data-name="Tracé 9" class="cls-1" d="M17.68,14.58c-.36-.17-.72-.31-1.09-.45a7.7,7.7,0,1,0-8.51,0A12.36,12.36,0,0,0,0,25.72H2.05a10.27,10.27,0,0,1,14.73-9.28ZM6.68,7.7a5.65,5.65,0,1,1,5.65,5.66A5.64,5.64,0,0,1,6.68,7.7Z"/><path id="Tracé_42" data-name="Tracé 42" class="cls-1" d="M25.5,26a7.5,7.5,0,1,0-7.5-7.5h0A7.5,7.5,0,0,0,25.5,26Zm0-13a5.5,5.5,0,1,1-5.5,5.5h0A5.51,5.51,0,0,1,25.5,13Z"/><path id="Tracé_43" data-name="Tracé 43" class="cls-1" d="M29.33,18.88a.76.76,0,0,1-.76.76H25.52a.76.76,0,0,1-.76-.76h0V15.09a.74.74,0,0,1,.76-.75.76.76,0,0,1,.76.75v3h2.29a.76.76,0,0,1,.76.76Z"/></g></g></svg>