<svg xmlns="http://www.w3.org/2000/svg" viewBox="0 0 45 45"><defs><style>.cls-1{fill:#a8afb8;}.cls-2{fill:#fff;}</style></defs><g id="Calque_2" data-name="Calque 2"><g id="ICONS"><path class="cls-1" d="M22.5,43a20.5,20.5,0,0,1-8-39.39,20.51,20.51,0,0,1,16,37.78A20.36,20.36,0,0,1,22.5,43Z"/><path class="cls-2" d="M22.5,4A18.5,18.5,0,0,0,9.42,35.58,18.5,18.5,0,1,0,35.58,9.42,18.35,18.35,0,0,0,22.5,4m0-4A22.5,22.5,0,1,1,0,22.5,22.5,22.5,0,0,1,22.5,0Z"/><path id="Tracé_93" data-name="Tracé 93" class="cls-2" d="M26.15,22.5,31.62,17a2.08,2.08,0,0,0,0-2.92l-.73-.73a2.08,2.08,0,0,0-2.92,0L22.5,18.85,17,13.38a2.08,2.08,0,0,0-2.92,0l-.73.73a2.08,2.08,0,0,0,0,2.92l5.47,5.47L13.38,28a2.08,2.08,0,0,0,0,2.92l.73.73a2.08,2.08,0,0,0,2.92,0l5.47-5.47L28,31.62a2.08,2.08,0,0,0,2.92,0l.73-.73a2.08,2.08,0,0,0,0-2.92Z"/></g></g></svg>