<svg xmlns="http://www.w3.org/2000/svg" viewBox="0 0 78 78"><defs><style>.cls-1{fill:#7b57bb;}.cls-2{fill:#fff;}</style></defs><g id="Calque_2" data-name="Calque 2"><g id="ICONS"><circle class="cls-1" cx="39" cy="39" r="35"/><path class="cls-2" d="M39,78A39,39,0,1,1,78,39,39.05,39.05,0,0,1,39,78ZM39,4A35,35,0,1,0,74,39,35,35,0,0,0,39,4Z"/><path id="Tracé_4-2" data-name="Tracé 4-2" class="cls-2" d="M47.34,37.53c-.55-.26-1.11-.48-1.68-.7a11.88,11.88,0,1,0-13.11,0A19,19,0,0,0,20.09,54.65h3.17A15.85,15.85,0,0,1,39.1,38.82,15.69,15.69,0,0,1,46,40.38ZM30.39,27a8.71,8.71,0,1,1,8.71,8.71h0A8.72,8.72,0,0,1,30.39,27Z"/><path id="Tracé_5-2" data-name="Tracé 5-2" class="cls-2" d="M55.16,47.75H58A.76.76,0,0,0,58.8,47V46.6a.77.77,0,0,0-.76-.77H55.16V43a.77.77,0,0,0-.77-.76H54a.76.76,0,0,0-.76.76v2.88H50.36a.78.78,0,0,0-.77.77V47a.76.76,0,0,0,.77.76h2.88v2.88a.76.76,0,0,0,.76.77h.39a.78.78,0,0,0,.77-.77Z"/><path id="Tracé_6" data-name="Tracé 6" class="cls-2" d="M48.28,52.71a8.37,8.37,0,1,0,0-11.84A8.37,8.37,0,0,0,48.28,52.71ZM58.54,42.45a6.14,6.14,0,1,1-8.68,0h0a6.15,6.15,0,0,1,8.68,0Z"/></g></g></svg>