<svg xmlns="http://www.w3.org/2000/svg" viewBox="0 0 29 24.01"><defs><style>.cls-1{fill:#7b57bb;}</style></defs><g id="Calque_2" data-name="Calque 2"><g id="ICONS"><path id="Tracé_74" data-name="Tracé 74" class="cls-1" d="M28.64.24A1.5,1.5,0,0,0,27.79,0H1.22A1.5,1.5,0,0,0,.37.24.69.69,0,0,0,0,.8V2.4A.7.7,0,0,0,.37,3a1.49,1.49,0,0,0,.85.23H27.79A1.49,1.49,0,0,0,28.64,3,.68.68,0,0,0,29,2.4V.8A.66.66,0,0,0,28.64.24Z"/><path id="Tracé_75" data-name="Tracé 75" class="cls-1" d="M28.64,10.46a1.43,1.43,0,0,0-.85-.24H1.22a1.43,1.43,0,0,0-.85.24A.69.69,0,0,0,0,11v1.6a.7.7,0,0,0,.36.56,1.49,1.49,0,0,0,.85.23H27.79a1.49,1.49,0,0,0,.85-.23.68.68,0,0,0,.36-.56V11A.66.66,0,0,0,28.64,10.46Z"/><path id="Tracé_76" data-name="Tracé 76" class="cls-1" d="M28.63,21.05a1.52,1.52,0,0,0-.85-.24H1.21a1.5,1.5,0,0,0-.85.24.66.66,0,0,0-.36.56v1.6a.68.68,0,0,0,.36.56,1.49,1.49,0,0,0,.85.23H27.78a1.46,1.46,0,0,0,.84-.23.68.68,0,0,0,.36-.56v-1.6A.65.65,0,0,0,28.63,21.05Z"/></g></g></svg>