<svg xmlns="http://www.w3.org/2000/svg" viewBox="0 0 35.01 35.02"><defs><style>.cls-1{fill:#7b57bb;}.cls-2{fill:#fff;}</style></defs><g id="Calque_2" data-name="Calque 2"><g id="ICONS"><g id="Groupe_58" data-name="Groupe 58"><path id="Tracé_50" data-name="Tracé 50" class="cls-1" d="M5.12,29.89a17.51,17.51,0,1,0,0-24.76h0A17.52,17.52,0,0,0,5.12,29.89Z"/><path id="Tracé_51" data-name="Tracé 51" class="cls-2" d="M19.56,19.57h6.18a1.66,1.66,0,0,0,1.65-1.65V17.1a1.66,1.66,0,0,0-1.65-1.65H19.56V9.27a1.66,1.66,0,0,0-1.65-1.65h-.82a1.65,1.65,0,0,0-1.65,1.65v6.18H9.26a1.66,1.66,0,0,0-1.65,1.64v.83a1.66,1.66,0,0,0,1.65,1.65h6.18v6.18a1.64,1.64,0,0,0,1.65,1.64h.82a1.65,1.65,0,0,0,1.65-1.64Z"/></g></g></g></svg>