<svg xmlns="http://www.w3.org/2000/svg" viewBox="0 0 337.82 234.74"><defs><style>.cls-1{fill:#7b57bb;opacity:0.2;isolation:isolate;}</style></defs><g id="Calque_2" data-name="Calque 2"><g id="FONDS"><path id="Tracé_87" data-name="Tracé 87" class="cls-1" d="M333.76,129c-15.86-9.83-32.63-17.34-50.87-21.59-1.8-.42-4.57-2.35-4.63-3.68-.4-8.22.23-16.5-.19-24.71-.56-10.91-1.09-21.9-2.89-32.65s-3.4-11.21-14-8.68a11.54,11.54,0,0,1-1.19.45c-15.9,2.18-30.35,8.4-44.23,16-4.66,2.56-6.88,1.75-9.22-3.17-8.58-18.11-19.52-34.66-34-48.81-3.26-3.19-5.21-2.81-8.39.12C149.28,16.11,138.66,32.83,130,50.87c-2.23,4.66-3.87,5.85-8.9,3a134.86,134.86,0,0,0-50.43-16.6c-5.38-1.7-6.84,1.12-7.72,5.64a205.84,205.84,0,0,0-3.51,55.55c.37,4.63.51,7.8-5.58,9.22a145.8,145.8,0,0,0-48.5,20.62c-4.31,2.89-7.2,5.77-4,11.4,9.19,16,17,32.89,27.48,47.94,14.29,20.47,33.79,35.24,58.2,42.6,28.61,8.63,55.05,5.42,78.49-14.4,1.21-1,4.66-.71,6.26.28,5.4,3.34,10,8.4,15.7,10.72,14.61,5.91,29.48,9.85,45.93,7,16.26-2.81,31.57-7.47,44.9-16.88,27.84-19.65,45.58-47.06,58.45-78C338.66,134.4,338.17,131.77,333.76,129ZM217.12,60.1Q240,52.15,263,44.74c3.42-1.1,5,.54,5.71,4.53A177.58,177.58,0,0,1,271,94.67c-.26,3.25.62,8-1.14,9.37-2.07,1.6-6.51-.21-9.8.27-9,1.35-18,3-26.95,4.78a84.17,84.17,0,0,0-8.94,2.66c-3.39-15.32-6.42-29.95-10-44.44C213.22,63.61,214,61.2,217.12,60.1Zm-2.27,41.21c1.86,10.78-1.46,17.33-11.66,21.83-6,2.66-11,7.79-17.56,12.65-1.27-2.78-2.31-4.75-3.08-6.82-1.61-4.36-2.08-9.56-4.81-13-6.72-8.52-4.25-15.84,1.79-22.69,8-9.07,16.58-17.66,25.73-27.32,6.26,12.53,7.63,24,9.59,35.37Zm-27.49,51.75c-.11-5.95.67-11.25,6-15.09,6.38-4.58,12.52-9.49,19.18-14.57,6.79,18.76-13.58,67.22-29.28,73.12,1.5-6.89,3.44-12.76,3.92-18.74.65-8.19.32-16.47.15-24.71ZM135.72,53.32c9.4-14.32,18.82-28.65,28.62-42.7.85-1.23,5.66-1.62,6.7-.54,10.8,11.16,20.5,23.19,26.94,37.49.7,1.55,1.11,3.34,2.17,4.59,4.36,5.18,3,8.91-1.73,13.36-10.3,9.72-20,20.07-30.38,30.62-4-4.85-8.33-10.56-13.22-15.7a144.42,144.42,0,0,0-16.44-15.23c-4.68-3.59-5.76-7.17-2.67-11.89Zm-6.78,17.49c.18-.87,4-2.16,5-1.52a98.72,98.72,0,0,1,29,31.54c1.13,1.9,1.66,5.06.88,7-3.62,9.25-7.8,18.28-11.82,27.49-9.91-6.56-19.48-12.82-28.92-19.26-1-.7-2.1-2.54-1.9-3.64,2.39-13.91,4.92-27.8,7.78-41.62Zm23.23,116.42c1.17,3,1.33,6.37,2.06,10.11-16.38-6.58-36.2-54.25-31-73.1,1.31.33,2.88.32,3.92,1.05q9.12,6.37,18,13.07c4.59,3.47,5.23,7.6,4.95,13.71-.55,11.64-2.42,23.66,2.11,35.16ZM65.62,73.43c.28-7.55,2-15,2.81-22.59.6-5.4,3.9-6.8,8.51-5.88,15.3,3.08,30,7.94,43.57,15.71,1.61.92,2.83,4.58,2.41,6.59-2.11,10.12-5,20.08-7.24,30.19-.92,4.21-.78,8.65-1.16,13.36-9.44-1.84-18.11-3.75-26.86-5.14a73.68,73.68,0,0,0-15.2-.9c-3.88.2-5.84-1.08-6-4.68C66,91.21,65.29,82.3,65.62,73.43Zm70.86,151.28c-6.76,1.36-13.8,1.22-20.68,2.07-13.61,1.7-26.15-2.15-38.31-7.34-10.55-4.51-20.17-10.18-28.27-19-8.91-9.68-18.85-18.35-25-30.22-5.37-10.3-10.77-20.59-16-30.94-1.42-2.78-.92-4.79,2.17-6.81,15-9.83,31.44-15.84,49.46-18.88,12.38,50.17,35.08,91.46,91.42,105.4-4.89,2-9.62,4.67-14.7,5.7Zm.86-17.1c-15.12-4.6-27.1-13.7-37.8-25.5-12.73-14-21.35-29.93-27-47.63-2.2-6.89-3.34-14.12-5.36-22.95,13.57,1.33,25.14,2.07,36.57,3.73,9.17,1.33,10,3.91,11.13,13.24,2.1,18.2,5.76,36.25,16.16,51.75,6.64,9.88,15,18.6,23.92,29.42-6.24-.67-12.22-.43-17.61-2.07ZM160,184.17l-2.38.1L156.2,156l2.37-.1c10.11,9.18,3.53,18.79,1.41,28.29Zm7.7,13.7V183.39c4.75,4.11,4.91,8.89,0,14.48Zm3.16-39.29c-14-8.07-14.71-27.56-2-44.35,6.6,7.49,8.46,16.66,9.1,24.88.48,6.21-4.5,12.85-7.12,19.47Zm11.51-2.71c-.78,9-1.55,18-2.39,27.72-9.38-7.87-8.72-22.09,2.38-27.72Zm-2.55,53.2c0-.4-.15-1,0-1.16,24.44-16.51,35.68-40.77,40.58-68.68,1-5.4,1.09-10.93,2-16.34.26-1.6,1.61-4,2.84-4.28,9.85-2.16,19.75-4.16,29.72-5.65,4.52-.68,9.23-.12,13.88-.12a104,104,0,0,1-3.61,20.43q-.94,3.4-2.1,6.77c-12.57,36.61-43.5,69.26-77.13,69.38a51.71,51.71,0,0,1-6.21-.35Zm149.05-70.82c-3.22,8.23-6.47,16.53-10.68,24.28-10.35,19.06-23.35,36.08-41.67,48.33A92.27,92.27,0,0,1,223.8,227c-10,0-19.45-.8-28.75-4.07-2.89-1-5.6-2.5-8.4-3.78.15-.6.31-1.21.47-1.81,6.46-1.83,13.43-2.66,19.25-5.69,9.72-5.07,19.4-10.7,27.84-17.61,15.7-12.86,26.5-29.68,33.87-48.41,3.47-8.81,5.57-18.2,7.66-27.46.79-3.51,1.46-4.66,5.27-3.89a138.87,138.87,0,0,1,46,18.24c1.35.84,2.46,4.19,1.87,5.69Z"/></g></g></svg>